<svg width="400" height="230" viewBox="0 0 400 230" xmlns="http://www.w3.org/2000/svg" lang="en" xml:lang="en"><rect x="2" y="2" stroke-width="4" rx="0" width="396" height="226" stroke="#ffffff" fill="#ffffff"/><g font-weight="600" font-size="110pt" font-family="Verdana,Geneva,DejaVu Sans,sans-serif" text-rendering="geometricPrecision"><g transform="translate(0, 21)" fill="#24292f"><g transform="translate(15, 0)"><g transform="scale(0.095)"><text x="0" y="132" textLength="3652" lengthAdjust="spacingAndGlyphs">Language Distribution in Public Repositories</text></g></g><g transform="translate(215, 21)"><circle cx="81" cy="81" r="81" fill="#000000"/></g><g transform="translate(216, 22)"><path fill-rule="evenodd" fill="#3572A5" d="M 0.0,80.00000000000001 A 80 80 0 0 1 154.77133879766524 51.55273485192717 L 80,80 Z"/><path fill-rule="evenodd" fill="#e34c26" d="M 154.77133879766524,51.55273485192717 A 80 80 0 0 1 70.35882150787864 159.41692311644323 L 80,80 Z"/><path fill-rule="evenodd" fill="#f1e05a" d="M 70.35882150787864,159.41692311644323 A 80 80 0 0 1 15.279181091975019 127.0235643042362 L 80,80 Z"/><path fill-rule="evenodd" fill="#663399" d="M 15.279181091975019,127.0235643042362 A 80 80 0 0 1 3.0510495989805833 101.88284789924413 L 80,80 Z"/><path fill-rule="evenodd" fill="#89e051" d="M 3.0510495989805833,101.88284789924413 A 80 80 0 0 1 0.0 80.00000000000003 L 80,80 Z"/></g><g transform="translate(15, 21)"><rect x="0.5" y="0.5" rx="2" width="15" height="15" fill="#3572A5" stroke-width="1" stroke="#000000"/><text transform="scale(0.095)" x="263" y="132" textLength="1254" lengthAdjust="spacingAndGlyphs">Python 44.21%</text></g><g transform="translate(15, 42)"><rect x="0.5" y="0.5" rx="2" width="15" height="15" fill="#e34c26" stroke-width="1" stroke="#000000"/><text transform="scale(0.095)" x="263" y="132" textLength="1142" lengthAdjust="spacingAndGlyphs">HTML 32.71%</text></g><g transform="translate(15, 63)"><rect x="0.5" y="0.5" rx="2" width="15" height="15" fill="#f1e05a" stroke-width="1" stroke="#000000"/><text transform="scale(0.095)" x="263" y="132" textLength="1516" lengthAdjust="spacingAndGlyphs">JavaScript 13.08%</text></g><g transform="translate(15, 84)"><rect x="0.5" y="0.5" rx="2" width="15" height="15" fill="#663399" stroke-width="1" stroke="#000000"/><text transform="scale(0.095)" x="263" y="132" textLength="903" lengthAdjust="spacingAndGlyphs">CSS 5.59%</text></g><g transform="translate(15, 105)"><rect x="0.5" y="0.5" rx="2" width="15" height="15" fill="#89e051" stroke-width="1" stroke="#000000"/><text transform="scale(0.095)" x="263" y="132" textLength="982" lengthAdjust="spacingAndGlyphs">Shell 4.41%</text></g></g></g></svg>